<svg data-v-423bf9ae="" xmlns="http://www.w3.org/2000/svg" viewBox="0 0 190.85995085995086 60" class="font"><!----><!----><!----><g data-v-423bf9ae="" id="2f3a48d2-6981-47cb-b6a9-647ea7006350" fill="white" transform="matrix(4.193284034729004,0,0,4.193284034729004,-0.9991753697395325,-14.807533264160156)"><path d="M4.94 11.01L4.94 11.01L4.94 11.01Q4.94 11.08 4.95 11.18L4.95 11.18L4.95 11.18Q4.96 11.29 4.96 11.42L4.96 11.42L4.96 11.42Q4.96 11.58 4.91 11.82L4.91 11.82L4.91 11.82Q4.86 12.07 4.75 12.33L4.75 12.33L4.75 12.33Q4.65 12.60 4.47 12.87L4.47 12.87L4.47 12.87Q4.29 13.13 4.03 13.34L4.03 13.34L4.03 13.34Q3.77 13.56 3.42 13.69L3.42 13.69L3.42 13.69Q3.07 13.82 2.62 13.82L2.62 13.82L2.62 13.82Q2.21 13.82 1.79 13.67L1.79 13.67L1.79 13.67Q1.37 13.51 1.03 13.19L1.03 13.19L1.03 13.19Q0.68 12.87 0.46 12.36L0.46 12.36L0.46 12.36Q0.24 11.86 0.24 11.16L0.24 11.16L0.24 11.16Q0.24 10.73 0.35 10.30L0.35 10.30L0.35 10.30Q0.46 9.88 0.65 9.50L0.65 9.50L0.65 9.50Q0.84 9.13 1.10 8.81L1.10 8.81L1.10 8.81Q1.35 8.49 1.64 8.26L1.64 8.26L1.64 8.26Q1.92 8.03 2.23 7.90L2.23 7.90L2.23 7.90Q2.53 7.77 2.82 7.77L2.82 7.77L2.82 7.77Q3.32 7.77 3.64 7.93L3.64 7.93L3.64 7.93Q3.96 8.09 4.16 8.32L4.16 8.32L4.16 8.32Q4.35 8.55 4.43 8.81L4.43 8.81L4.43 8.81Q4.50 9.08 4.50 9.29L4.50 9.29L4.50 9.29Q4.50 9.50 4.41 9.76L4.41 9.76L4.41 9.76Q4.31 10.02 4.08 10.26L4.08 10.26L4.08 10.26Q3.86 10.49 3.49 10.65L3.49 10.65L3.49 10.65Q3.13 10.81 2.60 10.81L2.60 10.81L2.60 10.81Q2.32 10.81 2.10 10.74L2.10 10.74L2.10 10.74Q1.88 10.66 1.71 10.54L1.71 10.54L1.71 10.54Q1.54 10.42 1.42 10.28L1.42 10.28L1.42 10.28Q1.30 10.14 1.22 10.01L1.22 10.01L1.22 10.01Q1.09 10.44 1.09 11.01L1.09 11.01L1.09 11.01Q1.09 11.40 1.21 11.71L1.21 11.71L1.21 11.71Q1.32 12.02 1.52 12.24L1.52 12.24L1.52 12.24Q1.72 12.46 1.99 12.57L1.99 12.57L1.99 12.57Q2.26 12.69 2.59 12.69L2.59 12.69L2.59 12.69Q3.00 12.69 3.31 12.55L3.31 12.55L3.31 12.55Q3.62 12.41 3.85 12.20L3.85 12.20L3.85 12.20Q4.07 11.98 4.24 11.73L4.24 11.73L4.24 11.73Q4.41 11.48 4.53 11.28L4.53 11.28L4.53 11.28Q4.66 11.07 4.75 10.93L4.75 10.93L4.75 10.93Q4.84 10.79 4.93 10.80L4.93 10.80L4.93 10.80Q4.97 10.80 4.97 10.87L4.97 10.87L4.97 10.87Q4.97 10.90 4.96 10.94L4.96 10.94L4.96 10.94Q4.96 10.97 4.94 11.01ZM2.88 8.46L2.88 8.46L2.88 8.46Q2.76 8.46 2.57 8.51L2.57 8.51L2.57 8.51Q2.37 8.57 2.16 8.70L2.16 8.70L2.16 8.70Q1.94 8.83 1.73 9.05L1.73 9.05L1.73 9.05Q1.52 9.27 1.36 9.61L1.36 9.61L1.36 9.61Q1.46 9.56 1.53 9.53L1.53 9.53L1.53 9.53Q1.60 9.50 1.63 9.50L1.63 9.50L1.63 9.50Q1.64 9.50 1.67 9.52L1.67 9.52L1.67 9.52Q1.83 9.79 2.06 9.90L2.06 9.90L2.06 9.90Q2.30 10.01 2.59 10.01L2.59 10.01L2.59 10.01Q2.82 10.01 2.99 9.94L2.99 9.94L2.99 9.94Q3.16 9.86 3.27 9.73L3.27 9.73L3.27 9.73Q3.38 9.61 3.42 9.46L3.42 9.46L3.42 9.46Q3.47 9.32 3.47 9.17L3.47 9.17L3.47 9.17Q3.47 8.87 3.32 8.66L3.32 8.66L3.32 8.66Q3.16 8.46 2.88 8.46ZM10.05 13.21L10.05 13.21L10.05 13.21Q10.05 13.29 9.99 13.39L9.99 13.39L9.99 13.39Q9.93 13.49 9.82 13.49L9.82 13.49L9.82 13.49Q9.76 13.49 9.73 13.45L9.73 13.45L9.73 13.45Q9.69 13.42 9.66 13.42L9.66 13.42L9.66 13.42Q9.61 13.42 9.57 13.45L9.57 13.45L9.57 13.45Q9.52 13.49 9.42 13.49L9.42 13.49L9.42 13.49Q9.28 13.49 9.18 13.39L9.18 13.39L9.18 13.39Q9.08 13.29 9.02 13.14L9.02 13.14L9.02 13.14Q8.96 12.98 8.93 12.80L8.93 12.80L8.93 12.80Q8.90 12.62 8.90 12.46L8.90 12.46L8.90 12.46Q8.90 12.15 8.92 11.76L8.92 11.76L8.92 11.76Q8.95 11.37 8.98 10.95L8.98 10.95L8.98 10.95Q9.01 10.54 9.03 10.13L9.03 10.13L9.03 10.13Q9.06 9.72 9.06 9.37L9.06 9.37L9.06 9.37Q9.06 8.91 9.00 8.65L9.00 8.65L9.00 8.65Q8.93 8.39 8.78 8.39L8.78 8.39L8.78 8.39Q8.63 8.41 8.47 8.65L8.47 8.65L8.47 8.65Q8.31 8.89 8.15 9.26L8.15 9.26L8.15 9.26Q7.98 9.63 7.83 10.10L7.83 10.10L7.83 10.10Q7.67 10.57 7.52 11.06L7.52 11.06L7.52 11.06Q7.38 11.55 7.25 12.01L7.25 12.01L7.25 12.01Q7.12 12.47 7.01 12.83L7.01 12.83L7.01 12.83Q6.91 13.19 6.84 13.42L6.84 13.42L6.84 13.42Q6.76 13.64 6.73 13.64L6.73 13.64L6.73 13.64Q6.68 13.64 6.65 13.61L6.65 13.61L6.65 13.61Q6.62 13.59 6.60 13.56L6.60 13.56L6.60 13.56Q6.58 13.54 6.54 13.51L6.54 13.51L6.54 13.51Q6.51 13.49 6.44 13.49L6.44 13.49L6.44 13.49Q6.38 13.49 6.36 13.50L6.36 13.50L6.36 13.50Q6.34 13.51 6.31 13.54L6.31 13.54L6.31 13.54Q6.28 13.56 6.24 13.57L6.24 13.57L6.24 13.57Q6.20 13.58 6.10 13.58L6.10 13.58L6.10 13.58Q5.97 13.58 5.85 13.52L5.85 13.52L5.85 13.52Q5.74 13.46 5.74 13.33L5.74 13.33L5.74 13.33Q5.74 13.25 5.76 12.99L5.76 12.99L5.76 12.99Q5.79 12.74 5.83 12.36L5.83 12.36L5.83 12.36Q5.87 11.99 5.91 11.53L5.91 11.53L5.91 11.53Q5.95 11.07 5.99 10.58L5.99 10.58L5.99 10.58Q6.03 10.08 6.06 9.59L6.06 9.59L6.06 9.59Q6.08 9.10 6.08 8.65L6.08 8.65L6.08 8.65Q6.08 8.44 6.08 8.25L6.08 8.25L6.08 8.25Q6.07 8.06 6.07 7.89L6.07 7.89L6.07 7.89Q6.07 7.85 6.11 7.85L6.11 7.85L6.11 7.85Q6.19 7.85 6.24 7.88L6.24 7.88L6.24 7.88Q6.28 7.91 6.30 7.94L6.30 7.94L6.30 7.94Q6.32 7.98 6.33 8.01L6.33 8.01L6.33 8.01Q6.33 8.04 6.34 8.04L6.34 8.04L6.34 8.04Q6.36 8.04 6.38 8.02L6.38 8.02L6.38 8.02Q6.41 7.99 6.44 7.96L6.44 7.96L6.44 7.96Q6.47 7.94 6.50 7.91L6.50 7.91L6.50 7.91Q6.53 7.89 6.55 7.89L6.55 7.89L6.62 7.89L6.62 7.89Q6.72 7.89 6.76 7.86L6.76 7.86L6.76 7.86Q6.80 7.83 6.82 7.79L6.82 7.79L6.82 7.79Q6.84 7.75 6.84 7.72L6.84 7.72L6.84 7.72Q6.85 7.69 6.88 7.69L6.88 7.69L6.88 7.69Q6.90 7.69 6.94 7.72L6.94 7.72L6.94 7.72Q6.98 7.75 7.02 7.82L7.02 7.82L7.02 7.82Q7.05 7.90 7.08 8.01L7.08 8.01L7.08 8.01Q7.11 8.13 7.11 8.29L7.11 8.29L7.11 8.29Q7.11 8.51 7.09 8.85L7.09 8.85L7.09 8.85Q7.08 9.18 7.05 9.56L7.05 9.56L7.05 9.56Q7.03 9.94 7.01 10.33L7.01 10.33L7.01 10.33Q6.99 10.71 6.98 11.03L6.98 11.03L6.98 11.03Q7.05 10.73 7.16 10.37L7.16 10.37L7.16 10.37Q7.27 10.01 7.41 9.65L7.41 9.65L7.41 9.65Q7.55 9.28 7.71 8.92L7.71 8.92L7.71 8.92Q7.88 8.57 8.07 8.30L8.07 8.30L8.07 8.30Q8.26 8.03 8.47 7.86L8.47 7.86L8.47 7.86Q8.68 7.69 8.91 7.69L8.91 7.69L8.91 7.69Q9.28 7.69 9.52 7.83L9.52 7.83L9.52 7.83Q9.75 7.96 9.89 8.20L9.89 8.20L9.89 8.20Q10.03 8.44 10.08 8.76L10.08 8.76L10.08 8.76Q10.13 9.08 10.13 9.45L10.13 9.45L10.13 9.45Q10.13 9.77 10.10 10.11L10.10 10.11L10.10 10.11Q10.08 10.46 10.05 10.80L10.05 10.80L10.05 10.80Q10.01 11.15 9.99 11.48L9.99 11.48L9.99 11.48Q9.97 11.82 9.97 12.11L9.97 12.11L9.97 12.11Q9.97 12.48 10.01 12.77L10.01 12.77L10.01 12.77Q10.05 13.06 10.05 13.21ZM13.21 5.46L13.21 5.46L13.21 5.46Q13.21 5.50 13.20 5.68L13.20 5.68L13.20 5.68Q13.19 5.85 13.16 6.14L13.16 6.14L13.16 6.14Q13.14 6.43 13.10 6.81L13.10 6.81L13.10 6.81Q13.07 7.18 13.04 7.62L13.04 7.62L13.04 7.62Q13.47 7.57 13.85 7.54L13.85 7.54L13.85 7.54Q14.24 7.51 14.51 7.51L14.51 7.51L14.51 7.51Q14.59 7.51 14.66 7.54L14.66 7.54L14.66 7.54Q14.73 7.57 14.78 7.62L14.78 7.62L14.78 7.62Q14.82 7.66 14.85 7.71L14.85 7.71L14.85 7.71Q14.88 7.77 14.88 7.80L14.88 7.80L14.88 7.80Q14.88 7.83 14.89 7.86L14.89 7.86L14.89 7.86Q14.90 7.90 14.90 7.93L14.90 7.93L14.90 7.93Q14.90 8.07 14.78 8.20L14.78 8.20L14.78 8.20Q14.66 8.34 14.42 8.37L14.42 8.37L12.96 8.53L12.96 8.53Q12.93 9.02 12.90 9.54L12.90 9.54L12.90 9.54Q12.87 10.06 12.85 10.58L12.85 10.58L12.85 10.58Q12.82 11.09 12.81 11.59L12.81 11.59L12.81 11.59Q12.80 12.09 12.80 12.54L12.80 12.54L12.80 12.54Q12.80 12.82 12.81 13.00L12.81 13.00L12.81 13.00Q12.82 13.18 12.82 13.23L12.82 13.23L12.82 13.23Q12.82 13.35 12.78 13.46L12.78 13.46L12.78 13.46Q12.74 13.58 12.68 13.67L12.68 13.67L12.68 13.67Q12.62 13.76 12.55 13.82L12.55 13.82L12.55 13.82Q12.49 13.88 12.45 13.88L12.45 13.88L12.45 13.88Q12.20 13.88 12.06 13.72L12.06 13.72L12.06 13.72Q11.92 13.57 11.84 13.31L11.84 13.31L11.84 13.31Q11.77 13.05 11.75 12.71L11.75 12.71L11.75 12.71Q11.73 12.38 11.73 12.02L11.73 12.02L11.73 12.02Q11.73 11.16 11.78 10.31L11.78 10.31L11.78 10.31Q11.83 9.45 11.92 8.65L11.92 8.65L11.06 8.76L11.06 8.76Q11.04 8.76 11.02 8.76L11.02 8.76L11.02 8.76Q11.00 8.77 10.97 8.77L10.97 8.77L10.97 8.77Q10.84 8.77 10.76 8.71L10.76 8.71L10.76 8.71Q10.68 8.65 10.64 8.57L10.64 8.57L10.64 8.57Q10.60 8.48 10.59 8.40L10.59 8.40L10.59 8.40Q10.58 8.31 10.58 8.26L10.58 8.26L10.58 8.26Q10.58 8.17 10.61 8.09L10.61 8.09L10.61 8.09Q10.64 8.00 10.71 7.98L10.71 7.98L10.71 7.98Q10.86 7.93 11.21 7.86L11.21 7.86L11.21 7.86Q11.57 7.80 12.02 7.73L12.02 7.73L12.02 7.73Q12.10 7.18 12.18 6.72L12.18 6.72L12.18 6.72Q12.26 6.25 12.33 5.92L12.33 5.92L12.33 5.92Q12.41 5.58 12.47 5.39L12.47 5.39L12.47 5.39Q12.54 5.20 12.58 5.20L12.58 5.20L12.58 5.20Q12.60 5.20 12.62 5.21L12.62 5.21L12.62 5.21Q12.64 5.22 12.65 5.22L12.65 5.22L12.65 5.22Q12.69 5.22 12.72 5.17L12.72 5.17L12.72 5.17Q12.74 5.13 12.81 5.13L12.81 5.13L12.81 5.13Q12.87 5.13 12.94 5.16L12.94 5.16L12.94 5.16Q13.02 5.20 13.07 5.26L13.07 5.26L13.07 5.26Q13.13 5.31 13.17 5.37L13.17 5.37L13.17 5.37Q13.21 5.43 13.21 5.46ZM18.94 13.46L18.94 13.46L18.94 13.46Q18.94 13.52 18.84 13.61L18.84 13.61L18.84 13.61Q18.74 13.70 18.58 13.70L18.58 13.70L18.58 13.70Q18.53 13.70 18.41 13.65L18.41 13.65L18.41 13.65Q18.28 13.60 18.14 13.51L18.14 13.51L18.14 13.51Q18.01 13.42 17.90 13.29L17.90 13.29L17.90 13.29Q17.79 13.15 17.78 12.98L17.78 12.98L17.78 12.98Q17.77 12.91 17.77 12.77L17.77 12.77L17.77 12.77Q17.77 12.64 17.77 12.46L17.77 12.46L17.77 12.46Q17.77 12.19 17.77 11.85L17.77 11.85L17.77 11.85Q17.77 11.52 17.78 11.18L17.78 11.18L17.78 11.18Q17.73 11.42 17.66 11.69L17.66 11.69L17.66 11.69Q17.60 11.95 17.49 12.21L17.49 12.21L17.49 12.21Q17.39 12.47 17.25 12.72L17.25 12.72L17.25 12.72Q17.12 12.97 16.94 13.21L16.94 13.21L16.94 13.21Q16.84 13.33 16.74 13.42L16.74 13.42L16.74 13.42Q16.63 13.50 16.53 13.56L16.53 13.56L16.53 13.56Q16.43 13.62 16.34 13.64L16.34 13.64L16.34 13.64Q16.25 13.67 16.20 13.67L16.20 13.67L16.20 13.67Q16.17 13.67 16.07 13.61L16.07 13.61L16.07 13.61Q15.98 13.56 15.84 13.46L15.84 13.46L15.84 13.46Q15.71 13.37 15.56 13.26L15.56 13.26L15.56 13.26Q15.41 13.15 15.27 13.03L15.27 13.03L15.27 13.03Q15.13 12.92 15.03 12.82L15.03 12.82L15.03 12.82Q14.92 12.72 14.87 12.66L14.87 12.66L14.87 12.66Q14.82 12.59 14.78 12.43L14.78 12.43L14.78 12.43Q14.75 12.26 14.72 12.02L14.72 12.02L14.72 12.02Q14.69 11.79 14.67 11.48L14.67 11.48L14.67 11.48Q14.66 11.18 14.66 10.84L14.66 10.84L14.66 10.84Q14.66 10.66 14.66 10.36L14.66 10.36L14.66 10.36Q14.67 10.07 14.69 9.73L14.69 9.73L14.69 9.73Q14.71 9.39 14.74 9.05L14.74 9.05L14.74 9.05Q14.77 8.70 14.82 8.43L14.82 8.43L14.82 8.43Q14.86 8.15 14.92 7.97L14.92 7.97L14.92 7.97Q14.98 7.80 15.07 7.80L15.07 7.80L15.07 7.80Q15.12 7.80 15.26 7.83L15.26 7.83L15.26 7.83Q15.39 7.86 15.54 7.86L15.54 7.86L15.54 7.86Q15.75 7.86 15.84 7.82L15.84 7.82L15.84 7.82Q15.92 7.79 15.96 7.79L15.96 7.79L15.96 7.79Q16.03 7.79 16.03 7.90L16.03 7.90L16.03 7.90Q16.03 7.94 16.03 7.97L16.03 7.97L16.03 7.97Q16.03 8.00 16.02 8.04L16.02 8.04L16.02 8.04Q16.01 8.08 15.99 8.25L15.99 8.25L15.99 8.25Q15.96 8.42 15.93 8.69L15.93 8.69L15.93 8.69Q15.89 8.96 15.86 9.29L15.86 9.29L15.86 9.29Q15.83 9.62 15.79 9.98L15.79 9.98L15.79 9.98Q15.76 10.34 15.74 10.71L15.74 10.71L15.74 10.71Q15.72 11.08 15.72 11.42L15.72 11.42L15.72 11.42Q15.72 11.64 15.73 11.87L15.73 11.87L15.73 11.87Q15.74 12.09 15.77 12.28L15.77 12.28L15.77 12.28Q15.80 12.46 15.85 12.57L15.85 12.57L15.85 12.57Q15.89 12.69 15.96 12.69L15.96 12.69L15.96 12.69Q16.02 12.69 16.14 12.63L16.14 12.63L16.14 12.63Q16.25 12.57 16.40 12.39L16.40 12.39L16.40 12.39Q16.56 12.22 16.74 11.89L16.74 11.89L16.74 11.89Q16.93 11.56 17.14 11.02L17.14 11.02L17.14 11.02Q17.36 10.47 17.59 9.68L17.59 9.68L17.59 9.68Q17.83 8.89 18.07 7.80L18.07 7.80L18.07 7.80Q18.07 7.78 18.10 7.77L18.10 7.77L18.10 7.77Q18.12 7.76 18.16 7.76L18.16 7.76L18.16 7.76Q18.25 7.76 18.38 7.78L18.38 7.78L18.38 7.78Q18.52 7.79 18.65 7.82L18.65 7.82L18.65 7.82Q18.77 7.85 18.86 7.90L18.86 7.90L18.86 7.90Q18.96 7.94 18.96 7.98L18.96 7.98L18.96 7.98Q18.96 8.29 18.93 8.65L18.93 8.65L18.93 8.65Q18.90 9.02 18.87 9.40L18.87 9.40L18.87 9.40Q18.83 9.79 18.81 10.19L18.81 10.19L18.81 10.19Q18.78 10.60 18.78 10.99L18.78 10.99L18.78 10.99Q18.78 11.70 18.82 12.35L18.82 12.35L18.82 12.35Q18.87 13.00 18.94 13.46ZM25.07 8.25L25.07 8.25L25.07 8.25Q25.05 8.29 25.03 8.31L25.03 8.31L25.03 8.31Q25.01 8.33 24.99 8.35L24.99 8.35L24.99 8.35Q24.96 8.37 24.92 8.40L24.92 8.40L24.92 8.40Q24.88 8.44 24.81 8.49L24.81 8.49L24.81 8.49Q24.70 8.58 24.42 8.83L24.42 8.83L24.42 8.83Q24.15 9.08 23.79 9.43L23.79 9.43L23.79 9.43Q23.43 9.78 23.01 10.19L23.01 10.19L23.01 10.19Q22.60 10.60 22.20 11.02L22.20 11.02L22.20 11.02Q21.81 11.43 21.46 11.81L21.46 11.81L21.46 11.81Q21.12 12.18 20.90 12.46L20.90 12.46L20.90 12.46Q21.18 12.41 21.54 12.37L21.54 12.37L21.54 12.37Q21.90 12.32 22.28 12.29L22.28 12.29L22.28 12.29Q22.66 12.26 23.04 12.24L23.04 12.24L23.04 12.24Q23.42 12.22 23.73 12.22L23.73 12.22L23.73 12.22Q24.15 12.22 24.38 12.26L24.38 12.26L24.38 12.26Q24.49 12.27 24.58 12.34L24.58 12.34L24.58 12.34Q24.66 12.40 24.72 12.48L24.72 12.48L24.72 12.48Q24.78 12.55 24.81 12.63L24.81 12.63L24.81 12.63Q24.84 12.70 24.84 12.74L24.84 12.74L24.84 12.74Q24.84 12.80 24.85 12.86L24.85 12.86L24.85 12.86Q24.86 12.91 24.85 12.96L24.85 12.96L24.85 12.96Q24.83 13.01 24.79 13.05L24.79 13.05L24.79 13.05Q24.75 13.09 24.66 13.11L24.66 13.11L24.66 13.11Q24.60 13.13 24.53 13.11L24.53 13.11L24.53 13.11Q24.46 13.10 24.39 13.08L24.39 13.08L24.39 13.08Q24.32 13.07 24.26 13.06L24.26 13.06L24.26 13.06Q24.21 13.06 24.19 13.08L24.19 13.08L24.19 13.08Q24.11 13.18 24.15 13.25L24.15 13.25L24.15 13.25Q24.20 13.32 24.29 13.41L24.29 13.41L24.29 13.41Q24.34 13.44 24.32 13.48L24.32 13.48L24.32 13.48Q24.30 13.53 24.23 13.56L24.23 13.56L24.23 13.56Q24.16 13.58 24.04 13.58L24.04 13.58L24.04 13.58Q23.92 13.58 23.78 13.54L23.78 13.54L23.78 13.54Q23.71 13.52 23.57 13.51L23.57 13.51L23.57 13.51Q23.42 13.49 23.22 13.48L23.22 13.48L23.22 13.48Q23.02 13.47 22.77 13.47L22.77 13.47L22.77 13.47Q22.52 13.46 22.25 13.46L22.25 13.46L22.25 13.46Q21.91 13.46 21.56 13.47L21.56 13.47L21.56 13.47Q21.21 13.48 20.90 13.50L20.90 13.50L20.90 13.50Q20.59 13.52 20.35 13.56L20.35 13.56L20.35 13.56Q20.11 13.59 20.00 13.64L20.00 13.64L20.00 13.64Q19.86 13.71 19.79 13.70L19.79 13.70L19.79 13.70Q19.71 13.69 19.63 13.61L19.63 13.61L19.63 13.61Q19.60 13.57 19.56 13.52L19.56 13.52L19.56 13.52Q19.52 13.48 19.51 13.44L19.51 13.44L19.51 13.44Q19.49 13.40 19.51 13.36L19.51 13.36L19.51 13.36Q19.52 13.32 19.59 13.30L19.59 13.30L19.59 13.30Q19.65 13.29 19.66 13.25L19.66 13.25L19.66 13.25Q19.66 13.21 19.64 13.17L19.64 13.17L19.64 13.17Q19.62 13.13 19.59 13.09L19.59 13.09L19.59 13.09Q19.56 13.04 19.56 13.01L19.56 13.01L19.56 13.01Q19.57 12.95 19.76 12.72L19.76 12.72L19.76 12.72Q19.95 12.49 20.26 12.15L20.26 12.15L20.26 12.15Q20.57 11.81 20.98 11.39L20.98 11.39L20.98 11.39Q21.38 10.97 21.82 10.53L21.82 10.53L21.82 10.53Q22.26 10.08 22.71 9.64L22.71 9.64L22.71 9.64Q23.15 9.19 23.55 8.81L23.55 8.81L23.55 8.81Q23.35 8.79 23.08 8.78L23.08 8.78L23.08 8.78Q22.81 8.77 22.52 8.77L22.52 8.77L22.52 8.77Q22.25 8.77 21.99 8.78L21.99 8.78L21.99 8.78Q21.73 8.78 21.50 8.79L21.50 8.79L21.50 8.79Q21.27 8.80 21.10 8.82L21.10 8.82L21.10 8.82Q20.92 8.83 20.84 8.84L20.84 8.84L20.84 8.84Q20.74 8.85 20.70 8.84L20.70 8.84L20.70 8.84Q20.66 8.83 20.64 8.81L20.64 8.81L20.64 8.81Q20.63 8.78 20.63 8.75L20.63 8.75L20.63 8.75Q20.62 8.72 20.61 8.70L20.61 8.70L20.61 8.70Q20.59 8.68 20.56 8.66L20.56 8.66L20.56 8.66Q20.53 8.64 20.51 8.61L20.51 8.61L20.51 8.61Q20.49 8.59 20.48 8.56L20.48 8.56L20.48 8.56Q20.47 8.52 20.50 8.49L20.50 8.49L20.50 8.49Q20.53 8.46 20.51 8.44L20.51 8.44L20.51 8.44Q20.49 8.42 20.47 8.40L20.47 8.40L20.47 8.40Q20.44 8.39 20.41 8.36L20.41 8.36L20.41 8.36Q20.38 8.33 20.38 8.29L20.38 8.29L20.38 8.29Q20.38 8.22 20.39 8.15L20.39 8.15L20.39 8.15Q20.39 8.08 20.45 8.07L20.45 8.07L20.45 8.07Q20.50 8.05 20.51 8.00L20.51 8.00L20.51 8.00Q20.51 7.94 20.61 7.89L20.61 7.89L20.61 7.89Q20.70 7.83 20.88 7.80L20.88 7.80L20.88 7.80Q21.07 7.77 21.32 7.75L21.32 7.75L21.32 7.75Q21.57 7.73 21.87 7.72L21.87 7.72L21.87 7.72Q22.17 7.72 22.49 7.72L22.49 7.72L22.49 7.72Q22.81 7.72 23.14 7.72L23.14 7.72L23.14 7.72Q23.46 7.72 23.76 7.73L23.76 7.73L23.76 7.73Q24.06 7.74 24.31 7.74L24.31 7.74L24.31 7.74Q24.57 7.75 24.75 7.75L24.75 7.75L24.75 7.75Q24.81 7.75 24.88 7.80L24.88 7.80L24.88 7.80Q24.95 7.85 25.01 7.93L25.01 7.93L25.01 7.93Q25.06 8.00 25.08 8.09L25.08 8.09L25.08 8.09Q25.10 8.18 25.07 8.25ZM26.97 3.87L26.97 3.87L26.97 3.87Q27.04 4.03 27.07 4.20L27.07 4.20L27.07 4.20Q27.10 4.38 27.10 4.55L27.10 4.55L27.10 4.55Q27.10 4.75 27.06 4.94L27.06 4.94L27.06 4.94Q27.03 5.12 26.97 5.27L26.97 5.27L26.97 5.27Q26.91 5.42 26.83 5.52L26.83 5.52L26.83 5.52Q26.75 5.62 26.65 5.65L26.65 5.65L26.65 5.65Q26.54 5.67 26.43 5.66L26.43 5.66L26.43 5.66Q26.32 5.65 26.21 5.61L26.21 5.61L26.21 5.61Q26.10 5.57 26.00 5.50L26.00 5.50L26.00 5.50Q25.91 5.42 25.84 5.31L25.84 5.31L25.84 5.31Q25.67 5.04 25.67 4.66L25.67 4.66L25.67 4.66Q25.67 4.54 25.69 4.42L25.69 4.42L25.69 4.42Q25.70 4.29 25.74 4.18L25.74 4.18L25.74 4.18Q25.74 4.13 25.79 4.02L25.79 4.02L25.79 4.02Q25.83 3.91 25.88 3.80L25.88 3.80L25.88 3.80Q25.94 3.70 26.01 3.62L26.01 3.62L26.01 3.62Q26.08 3.53 26.16 3.53L26.16 3.53L26.16 3.53Q26.23 3.53 26.35 3.56L26.35 3.56L26.35 3.56Q26.48 3.59 26.61 3.63L26.61 3.63L26.61 3.63Q26.74 3.68 26.84 3.74L26.84 3.74L26.84 3.74Q26.94 3.80 26.97 3.87ZM26.90 7.57L26.90 7.57L26.90 7.57Q26.94 7.59 26.93 7.81L26.93 7.81L26.93 7.81Q26.93 8.04 26.90 8.44L26.90 8.44L26.90 8.44Q26.87 8.85 26.82 9.42L26.82 9.42L26.82 9.42Q26.78 9.99 26.74 10.71L26.74 10.71L26.74 10.71Q26.71 11.09 26.69 11.63L26.69 11.63L26.69 11.63Q26.68 12.17 26.66 12.80L26.66 12.80L26.66 12.80Q26.64 13.42 26.60 14.08L26.60 14.08L26.60 14.08Q26.56 14.73 26.49 15.33L26.49 15.33L26.49 15.33Q26.41 15.93 26.30 16.43L26.30 16.43L26.30 16.43Q26.18 16.93 26.00 17.24L26.00 17.24L26.00 17.24Q25.97 17.30 25.92 17.32L25.92 17.32L25.92 17.32Q25.86 17.34 25.78 17.37L25.78 17.37L25.78 17.37Q25.70 17.39 25.57 17.44L25.57 17.44L25.57 17.44Q25.45 17.49 25.28 17.60L25.28 17.60L25.28 17.60Q25.12 17.72 25.03 17.77L25.03 17.77L25.03 17.77Q24.93 17.83 24.80 17.84L24.80 17.84L24.80 17.84Q24.76 17.84 24.72 17.84L24.72 17.84L24.72 17.84Q24.67 17.84 24.60 17.83L24.60 17.83L24.60 17.83Q24.35 17.80 24.15 17.58L24.15 17.58L24.15 17.58Q23.95 17.36 23.82 17.06L23.82 17.06L23.82 17.06Q23.69 16.76 23.62 16.42L23.62 16.42L23.62 16.42Q23.56 16.08 23.57 15.81L23.57 15.81L23.57 15.81Q23.60 15.33 23.67 14.98L23.67 14.98L23.67 14.98Q23.75 14.62 23.83 14.38L23.83 14.38L23.83 14.38Q23.92 14.14 24.00 14.02L24.00 14.02L24.00 14.02Q24.09 13.90 24.14 13.89L24.14 13.89L24.14 13.89Q24.22 13.88 24.31 13.90L24.31 13.90L24.31 13.90Q24.40 13.92 24.48 14.01L24.48 14.01L24.48 14.01Q24.51 14.04 24.56 14.08L24.56 14.08L24.56 14.08Q24.61 14.11 24.65 14.15L24.65 14.15L24.65 14.15Q24.70 14.19 24.72 14.25L24.72 14.25L24.72 14.25Q24.75 14.30 24.72 14.38L24.72 14.38L24.72 14.38Q24.71 14.44 24.66 14.64L24.66 14.64L24.66 14.64Q24.62 14.83 24.58 15.10L24.58 15.10L24.58 15.10Q24.54 15.37 24.51 15.69L24.51 15.69L24.51 15.69Q24.48 16.00 24.48 16.30L24.48 16.30L24.48 16.30Q24.48 16.49 24.49 16.66L24.49 16.66L24.49 16.66Q24.51 16.82 24.54 16.96L24.54 16.96L24.54 16.96Q24.58 17.10 24.64 17.20L24.64 17.20L24.64 17.20Q24.70 17.29 24.79 17.34L24.79 17.34L24.79 17.34Q24.83 17.36 24.91 17.28L24.91 17.28L24.91 17.28Q24.99 17.20 25.07 17.00L25.07 17.00L25.07 17.00Q25.16 16.80 25.24 16.47L25.24 16.47L25.24 16.47Q25.32 16.14 25.38 15.65L25.38 15.65L25.38 15.65Q25.40 15.39 25.43 14.93L25.43 14.93L25.43 14.93Q25.46 14.46 25.49 13.89L25.49 13.89L25.49 13.89Q25.52 13.33 25.55 12.71L25.55 12.71L25.55 12.71Q25.57 12.10 25.60 11.54L25.60 11.54L25.60 11.54Q25.62 10.99 25.64 10.54L25.64 10.54L25.64 10.54Q25.66 10.10 25.67 9.86L25.67 9.86L25.67 9.86Q25.68 9.64 25.71 9.38L25.71 9.38L25.71 9.38Q25.73 9.13 25.76 8.87L25.76 8.87L25.76 8.87Q25.79 8.62 25.82 8.39L25.82 8.39L25.82 8.39Q25.85 8.16 25.88 7.98L25.88 7.98L25.88 7.98Q25.91 7.80 25.93 7.69L25.93 7.69L25.93 7.69Q25.94 7.57 25.95 7.55L25.95 7.55L25.95 7.55Q25.96 7.49 26.06 7.49L26.06 7.49L26.06 7.49Q26.15 7.49 26.19 7.54L26.19 7.54L26.19 7.54Q26.21 7.56 26.29 7.59L26.29 7.59L26.29 7.59Q26.37 7.62 26.52 7.55L26.52 7.55L26.52 7.55Q26.54 7.55 26.56 7.52L26.56 7.52L26.56 7.52Q26.58 7.50 26.61 7.49L26.61 7.49L26.61 7.49Q26.65 7.48 26.71 7.49L26.71 7.49L26.71 7.49Q26.78 7.51 26.90 7.57ZM32.00 9.50L32.00 9.50L32.00 9.50Q32.01 9.73 31.96 10.08L31.96 10.08L31.96 10.08Q31.91 10.42 31.85 10.82L31.85 10.82L31.85 10.82Q31.79 11.21 31.73 11.62L31.73 11.62L31.73 11.62Q31.68 12.03 31.68 12.39L31.68 12.39L31.68 12.39Q31.68 12.63 31.71 12.85L31.71 12.85L31.71 12.85Q31.75 13.06 31.83 13.22L31.83 13.22L31.83 13.22Q31.88 13.31 31.88 13.38L31.88 13.38L31.88 13.38Q31.88 13.45 31.87 13.50L31.87 13.50L31.87 13.50Q31.86 13.55 31.84 13.59L31.84 13.59L31.84 13.59Q31.83 13.62 31.84 13.66L31.84 13.66L31.84 13.66Q31.86 13.69 31.83 13.74L31.83 13.74L31.83 13.74Q31.81 13.78 31.77 13.82L31.77 13.82L31.77 13.82Q31.73 13.86 31.68 13.87L31.68 13.87L31.68 13.87Q31.63 13.89 31.59 13.86L31.59 13.86L31.59 13.86Q31.51 13.82 31.47 13.81L31.47 13.81L31.47 13.81Q31.42 13.80 31.39 13.81L31.39 13.81L31.39 13.81Q31.36 13.82 31.34 13.84L31.34 13.84L31.34 13.84Q31.32 13.85 31.28 13.84L31.28 13.84L31.28 13.84Q31.17 13.77 31.03 13.69L31.03 13.69L31.03 13.69Q30.89 13.61 30.85 13.51L30.85 13.51L30.85 13.51Q30.82 13.47 30.80 13.38L30.80 13.38L30.80 13.38Q30.78 13.28 30.76 13.15L30.76 13.15L30.76 13.15Q30.74 13.02 30.73 12.87L30.73 12.87L30.73 12.87Q30.71 12.72 30.71 12.58L30.71 12.58L30.71 12.58Q30.48 13.00 30.23 13.28L30.23 13.28L30.23 13.28Q29.97 13.56 29.71 13.73L29.71 13.73L29.71 13.73Q29.46 13.90 29.21 13.97L29.21 13.97L29.21 13.97Q28.96 14.03 28.75 14.03L28.75 14.03L28.75 14.03Q28.54 14.03 28.38 13.98L28.38 13.98L28.38 13.98Q28.22 13.92 28.13 13.85L28.13 13.85L28.13 13.85Q27.79 13.51 27.65 13.31L27.65 13.31L27.65 13.31Q27.51 13.10 27.53 12.97L27.53 12.97L27.53 12.97Q27.56 12.53 27.74 12.16L27.74 12.16L27.74 12.16Q27.92 11.79 28.18 11.48L28.18 11.48L28.18 11.48Q28.45 11.17 28.78 10.92L28.78 10.92L28.78 10.92Q29.11 10.67 29.46 10.48L29.46 10.48L29.46 10.48Q29.80 10.28 30.14 10.15L30.14 10.15L30.14 10.15Q30.47 10.01 30.75 9.93L30.75 9.93L30.75 9.93Q30.73 9.56 30.72 9.29L30.72 9.29L30.72 9.29Q30.70 9.01 30.67 8.88L30.67 8.88L30.67 8.88Q30.56 8.46 30.35 8.25L30.35 8.25L30.35 8.25Q30.14 8.04 29.84 8.04L29.84 8.04L29.84 8.04Q29.65 8.04 29.45 8.18L29.45 8.18L29.45 8.18Q29.26 8.33 29.10 8.57L29.10 8.57L29.10 8.57Q28.94 8.82 28.84 9.14L28.84 9.14L28.84 9.14Q28.75 9.46 28.74 9.82L28.74 9.82L28.74 9.82Q28.74 9.91 28.75 9.99L28.75 9.99L28.75 9.99Q28.75 10.07 28.77 10.16L28.77 10.16L28.77 10.16Q28.77 10.21 28.73 10.23L28.73 10.23L28.73 10.23Q28.70 10.25 28.64 10.26L28.64 10.26L28.64 10.26Q28.59 10.27 28.53 10.27L28.53 10.27L28.53 10.27Q28.46 10.28 28.42 10.29L28.42 10.29L28.42 10.29Q28.39 10.31 28.37 10.31L28.37 10.31L28.37 10.31Q28.35 10.32 28.33 10.31L28.33 10.31L28.33 10.31Q28.31 10.29 28.28 10.27L28.28 10.27L28.28 10.27Q28.25 10.24 28.19 10.20L28.19 10.20L28.19 10.20Q28.14 10.16 28.08 10.13L28.08 10.13L28.08 10.13Q28.02 10.10 27.98 10.08L27.98 10.08L27.98 10.08Q27.93 10.06 27.90 10.05L27.90 10.05L27.90 10.05Q27.87 10.03 27.87 10.00L27.87 10.00L27.87 10.00Q27.87 9.58 28.06 9.13L28.06 9.13L28.06 9.13Q28.25 8.67 28.56 8.30L28.56 8.30L28.56 8.30Q28.88 7.93 29.30 7.69L29.30 7.69L29.30 7.69Q29.72 7.45 30.19 7.45L30.19 7.45L30.19 7.45Q30.58 7.45 30.86 7.57L30.86 7.57L30.86 7.57Q31.14 7.68 31.34 7.87L31.34 7.87L31.34 7.87Q31.53 8.05 31.66 8.28L31.66 8.28L31.66 8.28Q31.79 8.50 31.86 8.73L31.86 8.73L31.86 8.73Q31.93 8.96 31.96 9.16L31.96 9.16L31.96 9.16Q31.99 9.37 32.00 9.50ZM30.76 11.39L30.76 10.71L30.76 10.71Q30.56 10.79 30.31 10.91L30.31 10.91L30.31 10.91Q30.06 11.03 29.81 11.20L29.81 11.20L29.81 11.20Q29.56 11.37 29.31 11.59L29.31 11.59L29.31 11.59Q29.05 11.81 28.83 12.07L28.83 12.07L28.83 12.07Q28.57 12.38 28.46 12.62L28.46 12.62L28.46 12.62Q28.34 12.86 28.31 13.03L28.31 13.03L28.31 13.03Q28.29 13.19 28.33 13.29L28.33 13.29L28.33 13.29Q28.37 13.38 28.42 13.41L28.42 13.41L28.42 13.41Q28.64 13.49 28.86 13.42L28.86 13.42L28.86 13.42Q29.09 13.36 29.32 13.19L29.32 13.19L29.32 13.19Q29.55 13.02 29.77 12.79L29.77 12.79L29.77 12.79Q29.98 12.55 30.17 12.30L30.17 12.30L30.17 12.30Q30.37 12.05 30.52 11.81L30.52 11.81L30.52 11.81Q30.67 11.57 30.76 11.39L30.76 11.39ZM37.34 8.13L37.34 8.13L37.34 8.13Q37.37 8.17 37.37 8.21L37.37 8.21L37.37 8.21Q37.37 8.25 37.37 8.31L37.37 8.31L37.37 8.31Q37.37 8.52 37.14 8.76L37.14 8.76L37.14 8.76Q36.91 9.00 36.42 9.20L36.42 9.20L36.42 9.20Q36.32 9.24 36.24 9.24L36.24 9.24L36.24 9.24Q36.13 9.24 36.06 9.18L36.06 9.18L36.06 9.18Q35.99 9.13 35.99 9.06L35.99 9.06L35.99 9.06Q35.99 9.02 36.04 8.97L36.04 8.97L36.04 8.97Q36.09 8.91 36.15 8.86L36.15 8.86L36.15 8.86Q36.21 8.80 36.26 8.76L36.26 8.76L36.26 8.76Q36.31 8.71 36.31 8.68L36.31 8.68L36.31 8.68Q36.31 8.63 36.22 8.63L36.22 8.63L36.22 8.63Q36.09 8.63 35.88 8.71L35.88 8.71L35.88 8.71Q35.66 8.78 35.43 8.91L35.43 8.91L35.43 8.91Q35.19 9.04 34.95 9.18L34.95 9.18L34.95 9.18Q34.71 9.33 34.51 9.47L34.51 9.47L34.51 9.47Q34.32 9.61 34.20 9.72L34.20 9.72L34.20 9.72Q34.08 9.83 34.08 9.88L34.08 9.88L34.08 9.88Q34.08 9.91 34.14 9.91L34.14 9.91L34.34 9.91L34.34 9.91Q34.52 9.91 34.81 9.93L34.81 9.93L34.81 9.93Q35.10 9.95 35.42 10.00L35.42 10.00L35.42 10.00Q35.75 10.06 36.07 10.17L36.07 10.17L36.07 10.17Q36.39 10.27 36.65 10.45L36.65 10.45L36.65 10.45Q36.91 10.63 37.07 10.88L37.07 10.88L37.07 10.88Q37.24 11.14 37.24 11.48L37.24 11.48L37.24 11.48Q37.24 11.66 37.18 11.86L37.18 11.86L37.18 11.86Q37.12 12.07 36.97 12.27L36.97 12.27L36.97 12.27Q36.83 12.48 36.57 12.70L36.57 12.70L36.57 12.70Q36.32 12.91 35.93 13.13L35.93 13.13L35.93 13.13Q35.34 13.44 34.83 13.59L34.83 13.59L34.83 13.59Q34.32 13.74 33.91 13.74L33.91 13.74L33.91 13.74Q33.38 13.74 33.07 13.50L33.07 13.50L33.07 13.50Q32.76 13.26 32.76 12.82L32.76 12.82L32.76 12.82Q32.76 12.49 32.89 12.26L32.89 12.26L32.89 12.26Q33.02 12.02 33.19 11.87L33.19 11.87L33.19 11.87Q33.36 11.72 33.53 11.65L33.53 11.65L33.53 11.65Q33.70 11.57 33.79 11.57L33.79 11.57L33.79 11.57Q33.83 11.57 33.86 11.56L33.86 11.56L33.86 11.56Q33.89 11.55 33.93 11.55L33.93 11.55L33.93 11.55Q33.99 11.55 33.99 11.63L33.99 11.63L33.99 11.70L33.99 11.70Q33.99 11.74 34.01 11.77L34.01 11.77L34.01 11.77Q34.03 11.80 34.03 11.83L34.03 11.83L34.03 11.83Q34.03 11.87 33.93 11.96L33.93 11.96L33.93 11.96Q33.83 12.04 33.71 12.15L33.71 12.15L33.71 12.15Q33.60 12.26 33.50 12.38L33.50 12.38L33.50 12.38Q33.40 12.50 33.40 12.62L33.40 12.62L33.40 12.62Q33.40 12.76 33.62 12.76L33.62 12.76L33.62 12.76Q33.89 12.76 34.20 12.65L34.20 12.65L34.20 12.65Q34.50 12.54 34.79 12.38L34.79 12.38L34.79 12.38Q35.08 12.22 35.35 12.01L35.35 12.01L35.35 12.01Q35.61 11.80 35.81 11.60L35.81 11.60L35.81 11.60Q36.00 11.40 36.12 11.23L36.12 11.23L36.12 11.23Q36.24 11.05 36.24 10.95L36.24 10.95L36.24 10.95Q36.24 10.83 36.10 10.75L36.10 10.75L36.10 10.75Q35.96 10.68 35.71 10.63L35.71 10.63L35.71 10.63Q35.47 10.58 35.15 10.56L35.15 10.56L35.15 10.56Q34.83 10.55 34.47 10.55L34.47 10.55L34.47 10.55Q34.10 10.55 33.86 10.58L33.86 10.58L33.86 10.58Q33.62 10.62 33.56 10.62L33.56 10.62L33.56 10.62Q33.52 10.62 33.43 10.61L33.43 10.61L33.43 10.61Q33.34 10.60 33.25 10.54L33.25 10.54L33.25 10.54Q33.15 10.49 33.09 10.39L33.09 10.39L33.09 10.39Q33.02 10.29 33.02 10.10L33.02 10.10L33.02 10.10Q33.02 9.97 33.08 9.80L33.08 9.80L33.08 9.80Q33.13 9.64 33.28 9.45L33.28 9.45L33.28 9.45Q33.43 9.26 33.68 9.04L33.68 9.04L33.68 9.04Q33.94 8.83 34.34 8.59L34.34 8.59L34.34 8.59Q34.75 8.33 35.12 8.17L35.12 8.17L35.12 8.17Q35.49 8.01 35.78 7.92L35.78 7.92L35.78 7.92Q36.08 7.83 36.31 7.80L36.31 7.80L36.31 7.80Q36.53 7.77 36.66 7.77L36.66 7.77L36.66 7.77Q36.97 7.77 37.12 7.85L37.12 7.85L37.12 7.85Q37.27 7.93 37.34 8.13ZM40.15 5.46L40.15 5.46L40.15 5.46Q40.15 5.50 40.13 5.68L40.13 5.68L40.13 5.68Q40.12 5.85 40.10 6.14L40.10 6.14L40.10 6.14Q40.07 6.43 40.04 6.81L40.04 6.81L40.04 6.81Q40.00 7.18 39.97 7.62L39.97 7.62L39.97 7.62Q40.40 7.57 40.79 7.54L40.79 7.54L40.79 7.54Q41.17 7.51 41.44 7.51L41.44 7.51L41.44 7.51Q41.53 7.51 41.60 7.54L41.60 7.54L41.60 7.54Q41.67 7.57 41.71 7.62L41.71 7.62L41.71 7.62Q41.75 7.66 41.78 7.71L41.78 7.71L41.78 7.71Q41.81 7.77 41.82 7.80L41.82 7.80L41.82 7.80Q41.82 7.83 41.82 7.86L41.82 7.86L41.82 7.86Q41.83 7.90 41.83 7.93L41.83 7.93L41.83 7.93Q41.83 8.07 41.71 8.20L41.71 8.20L41.71 8.20Q41.59 8.34 41.35 8.37L41.35 8.37L39.89 8.53L39.89 8.53Q39.86 9.02 39.83 9.54L39.83 9.54L39.83 9.54Q39.81 10.06 39.78 10.58L39.78 10.58L39.78 10.58Q39.76 11.09 39.74 11.59L39.74 11.59L39.74 11.59Q39.73 12.09 39.73 12.54L39.73 12.54L39.73 12.54Q39.73 12.82 39.74 13.00L39.74 13.00L39.74 13.00Q39.76 13.18 39.76 13.23L39.76 13.23L39.76 13.23Q39.76 13.35 39.71 13.46L39.71 13.46L39.71 13.46Q39.67 13.58 39.61 13.67L39.61 13.67L39.61 13.67Q39.55 13.76 39.49 13.82L39.49 13.82L39.49 13.82Q39.42 13.88 39.38 13.88L39.38 13.88L39.38 13.88Q39.14 13.88 38.99 13.72L38.99 13.72L38.99 13.72Q38.85 13.57 38.78 13.31L38.78 13.31L38.78 13.31Q38.71 13.05 38.68 12.71L38.68 12.71L38.68 12.71Q38.66 12.38 38.66 12.02L38.66 12.02L38.66 12.02Q38.66 11.16 38.71 10.31L38.71 10.31L38.71 10.31Q38.76 9.45 38.85 8.65L38.85 8.65L37.99 8.76L37.99 8.76Q37.97 8.76 37.95 8.76L37.95 8.76L37.95 8.76Q37.93 8.77 37.91 8.77L37.91 8.77L37.91 8.77Q37.78 8.77 37.70 8.71L37.70 8.71L37.70 8.71Q37.62 8.65 37.58 8.57L37.58 8.57L37.58 8.57Q37.54 8.48 37.53 8.40L37.53 8.40L37.53 8.40Q37.52 8.31 37.52 8.26L37.52 8.26L37.52 8.26Q37.52 8.17 37.54 8.09L37.54 8.09L37.54 8.09Q37.57 8.00 37.65 7.98L37.65 7.98L37.65 7.98Q37.79 7.93 38.15 7.86L38.15 7.86L38.15 7.86Q38.51 7.80 38.96 7.73L38.96 7.73L38.96 7.73Q39.03 7.18 39.11 6.72L39.11 6.72L39.11 6.72Q39.19 6.25 39.27 5.92L39.27 5.92L39.27 5.92Q39.34 5.58 39.41 5.39L39.41 5.39L39.41 5.39Q39.47 5.20 39.52 5.20L39.52 5.20L39.52 5.20Q39.53 5.20 39.55 5.21L39.55 5.21L39.55 5.21Q39.57 5.22 39.59 5.22L39.59 5.22L39.59 5.22Q39.63 5.22 39.65 5.17L39.65 5.17L39.65 5.17Q39.68 5.13 39.74 5.13L39.74 5.13L39.74 5.13Q39.81 5.13 39.88 5.16L39.88 5.16L39.88 5.16Q39.95 5.20 40.01 5.26L40.01 5.26L40.01 5.26Q40.07 5.31 40.11 5.37L40.11 5.37L40.11 5.37Q40.15 5.43 40.15 5.46ZM45.75 9.50L45.75 9.50L45.75 9.50Q45.76 9.73 45.71 10.08L45.71 10.08L45.71 10.08Q45.66 10.42 45.60 10.82L45.60 10.82L45.60 10.82Q45.54 11.21 45.49 11.62L45.49 11.62L45.49 11.62Q45.43 12.03 45.43 12.39L45.43 12.39L45.43 12.39Q45.43 12.63 45.47 12.85L45.47 12.85L45.47 12.85Q45.50 13.06 45.58 13.22L45.58 13.22L45.58 13.22Q45.63 13.31 45.63 13.38L45.63 13.38L45.63 13.38Q45.64 13.45 45.62 13.50L45.62 13.50L45.62 13.50Q45.61 13.55 45.60 13.59L45.60 13.59L45.60 13.59Q45.58 13.62 45.60 13.66L45.60 13.66L45.60 13.66Q45.61 13.69 45.59 13.74L45.59 13.74L45.59 13.74Q45.57 13.78 45.53 13.82L45.53 13.82L45.53 13.82Q45.49 13.86 45.44 13.87L45.44 13.87L45.44 13.87Q45.38 13.89 45.34 13.86L45.34 13.86L45.34 13.86Q45.27 13.82 45.22 13.81L45.22 13.81L45.22 13.81Q45.18 13.80 45.15 13.81L45.15 13.81L45.15 13.81Q45.12 13.82 45.09 13.84L45.09 13.84L45.09 13.84Q45.07 13.85 45.04 13.84L45.04 13.84L45.04 13.84Q44.92 13.77 44.78 13.69L44.78 13.69L44.78 13.69Q44.65 13.61 44.60 13.51L44.60 13.51L44.60 13.51Q44.58 13.47 44.55 13.38L44.55 13.38L44.55 13.38Q44.53 13.28 44.51 13.15L44.51 13.15L44.51 13.15Q44.50 13.02 44.48 12.87L44.48 12.87L44.48 12.87Q44.47 12.72 44.46 12.58L44.46 12.58L44.46 12.58Q44.24 13.00 43.98 13.28L43.98 13.28L43.98 13.28Q43.72 13.56 43.47 13.73L43.47 13.73L43.47 13.73Q43.21 13.90 42.96 13.97L42.96 13.97L42.96 13.97Q42.71 14.03 42.51 14.03L42.51 14.03L42.51 14.03Q42.29 14.03 42.13 13.98L42.13 13.98L42.13 13.98Q41.97 13.92 41.88 13.85L41.88 13.85L41.88 13.85Q41.55 13.51 41.41 13.31L41.41 13.31L41.41 13.31Q41.27 13.10 41.28 12.97L41.28 12.97L41.28 12.97Q41.32 12.53 41.49 12.16L41.49 12.16L41.49 12.16Q41.67 11.79 41.94 11.48L41.94 11.48L41.94 11.48Q42.21 11.17 42.54 10.92L42.54 10.92L42.54 10.92Q42.87 10.67 43.21 10.48L43.21 10.48L43.21 10.48Q43.56 10.28 43.89 10.15L43.89 10.15L43.89 10.15Q44.23 10.01 44.50 9.93L44.50 9.93L44.50 9.93Q44.49 9.56 44.47 9.29L44.47 9.29L44.47 9.29Q44.45 9.01 44.42 8.88L44.42 8.88L44.42 8.88Q44.32 8.46 44.11 8.25L44.11 8.25L44.11 8.25Q43.89 8.04 43.59 8.04L43.59 8.04L43.59 8.04Q43.40 8.04 43.21 8.18L43.21 8.18L43.21 8.18Q43.01 8.33 42.85 8.57L42.85 8.57L42.85 8.57Q42.70 8.82 42.60 9.14L42.60 9.14L42.60 9.14Q42.50 9.46 42.49 9.82L42.49 9.82L42.49 9.82Q42.49 9.91 42.50 9.99L42.50 9.99L42.50 9.99Q42.51 10.07 42.52 10.16L42.52 10.16L42.52 10.16Q42.53 10.21 42.49 10.23L42.49 10.23L42.49 10.23Q42.45 10.25 42.40 10.26L42.40 10.26L42.40 10.26Q42.34 10.27 42.28 10.27L42.28 10.27L42.28 10.27Q42.22 10.28 42.18 10.29L42.18 10.29L42.18 10.29Q42.14 10.31 42.12 10.31L42.12 10.31L42.12 10.31Q42.10 10.32 42.08 10.31L42.08 10.31L42.08 10.31Q42.06 10.29 42.03 10.27L42.03 10.27L42.03 10.27Q42 10.24 41.95 10.20L41.95 10.20L41.95 10.20Q41.89 10.16 41.83 10.13L41.83 10.13L41.83 10.13Q41.77 10.10 41.73 10.08L41.73 10.08L41.73 10.08Q41.69 10.06 41.65 10.05L41.65 10.05L41.65 10.05Q41.62 10.03 41.62 10.00L41.62 10.00L41.62 10.00Q41.62 9.58 41.81 9.13L41.81 9.13L41.81 9.13Q42 8.67 42.32 8.30L42.32 8.30L42.32 8.30Q42.64 7.93 43.06 7.69L43.06 7.69L43.06 7.69Q43.48 7.45 43.95 7.45L43.95 7.45L43.95 7.45Q44.33 7.45 44.61 7.57L44.61 7.57L44.61 7.57Q44.89 7.68 45.09 7.87L45.09 7.87L45.09 7.87Q45.29 8.05 45.41 8.28L45.41 8.28L45.41 8.28Q45.54 8.50 45.61 8.73L45.61 8.73L45.61 8.73Q45.68 8.96 45.72 9.16L45.72 9.16L45.72 9.16Q45.75 9.37 45.75 9.50ZM44.52 11.39L44.52 10.71L44.52 10.71Q44.31 10.79 44.06 10.91L44.06 10.91L44.06 10.91Q43.82 11.03 43.57 11.20L43.57 11.20L43.57 11.20Q43.31 11.37 43.06 11.59L43.06 11.59L43.06 11.59Q42.81 11.81 42.59 12.07L42.59 12.07L42.59 12.07Q42.33 12.38 42.21 12.62L42.21 12.62L42.21 12.62Q42.10 12.86 42.07 13.03L42.07 13.03L42.07 13.03Q42.04 13.19 42.08 13.29L42.08 13.29L42.08 13.29Q42.12 13.38 42.18 13.41L42.18 13.41L42.18 13.41Q42.39 13.49 42.62 13.42L42.62 13.42L42.62 13.42Q42.85 13.36 43.08 13.19L43.08 13.19L43.08 13.19Q43.31 13.02 43.52 12.79L43.52 12.79L43.52 12.79Q43.74 12.55 43.93 12.30L43.93 12.30L43.93 12.30Q44.12 12.05 44.27 11.81L44.27 11.81L44.27 11.81Q44.42 11.57 44.52 11.39L44.52 11.39Z"></path></g><!----><!----></svg>